<?xml version="1.0" standalone="no"?>
<!DOCTYPE svg PUBLIC "-//W3C//DTD SVG 20010904//EN"
 "http://www.w3.org/TR/2001/REC-SVG-20010904/DTD/svg10.dtd">
<svg version="1.0" xmlns="http://www.w3.org/2000/svg"
 width="1024.000000pt" height="1024.000000pt" viewBox="0 0 1024.000000 1024.000000"
 preserveAspectRatio="xMidYMid meet">
<metadata>
Created by potrace 1.16, written by Peter Selinger 2001-2019
</metadata>
<g transform="translate(0.000000,1024.000000) scale(0.100000,-0.100000)"
fill="#000000" stroke="none">
<path d="M4760 8834 c-305 -32 -482 -62 -715 -120 -350 -88 -794 -277 -1059
-449 -88 -58 -109 -81 -141 -152 -14 -33 -30 -50 -71 -73 -63 -35 -201 -175
-322 -325 -145 -182 -315 -487 -408 -733 -34 -90 -100 -329 -125 -452 -25
-127 -22 -181 16 -220 29 -31 29 -27 -6 -188 -21 -94 -39 -271 -39 -378 0 -90
-4 -120 -20 -157 -11 -25 -23 -66 -26 -91 -6 -43 -10 -47 -70 -82 -120 -70
-326 -255 -388 -349 -36 -55 -54 -124 -81 -315 -32 -226 -55 -657 -37 -693 6
-12 13 -65 16 -117 9 -165 24 -259 47 -308 44 -91 377 -393 483 -437 19 -8 37
-23 41 -34 3 -10 27 -39 54 -64 70 -65 148 -87 314 -87 l126 0 12 -42 c26 -98
33 -112 70 -149 73 -73 157 -89 459 -89 l199 0 20 -46 c54 -122 242 -298 406
-381 67 -34 208 -81 267 -88 50 -6 62 -13 110 -59 101 -98 246 -168 426 -207
82 -18 120 -21 247 -17 131 4 161 8 233 33 46 16 102 41 125 56 61 41 132 115
159 165 12 24 25 44 28 44 3 0 15 -22 28 -49 42 -91 174 -191 317 -237 102
-33 144 -38 290 -37 174 2 295 27 418 87 86 41 184 119 206 162 16 31 16 31
81 26 165 -11 385 99 520 261 69 83 128 180 143 235 11 41 12 42 47 36 19 -4
40 -11 47 -16 18 -14 325 -21 430 -10 170 18 246 77 273 214 6 35 17 66 23 70
7 4 55 8 107 8 187 0 294 33 339 102 16 25 36 41 60 49 20 6 88 45 151 87 141
93 288 235 313 302 48 128 79 747 57 1130 -15 267 -36 381 -81 446 -55 80
-239 251 -375 349 l-42 30 -5 165 c-8 233 -22 382 -48 515 l-22 115 22 41 c22
39 23 44 11 122 -31 212 -145 552 -263 782 -93 182 -183 321 -318 490 -127
159 -332 355 -372 355 -21 0 -57 35 -57 55 0 7 -13 30 -29 52 -36 50 -199 149
-416 253 -599 288 -1165 419 -1835 425 -151 2 -293 -2 -370 -11z m747 -163
c10 -5 72 -14 138 -20 213 -19 281 -32 535 -103 410 -113 884 -322 1080 -477
l25 -20 -28 -10 c-16 -6 -33 -9 -38 -6 -5 4 -17 1 -26 -4 -16 -9 -15 -10 7
-11 21 0 15 -6 -30 -32 -30 -18 -62 -31 -70 -29 -8 1 -44 20 -80 41 -110 64
-379 195 -505 245 -405 162 -912 255 -1387 255 -260 0 -706 -60 -1013 -136
-130 -32 -173 -46 -335 -106 -167 -62 -239 -95 -407 -186 -73 -39 -153 -78
-179 -87 l-45 -15 -85 40 c-46 22 -84 44 -84 48 0 32 134 117 353 226 330 163
636 263 1037 341 86 17 291 41 475 55 131 10 639 4 662 -9z m188 -439 c319
-49 485 -94 765 -210 179 -73 490 -246 490 -272 0 -5 -2 -10 -4 -10 -3 0 -83
40 -178 89 -191 99 -262 129 -448 189 -240 78 -429 122 -673 157 -152 22 -206
25 -462 25 -465 0 -667 -26 -1070 -137 -233 -64 -471 -161 -678 -277 -60 -33
-91 -46 -98 -39 -7 7 19 25 83 58 51 26 119 62 150 81 181 110 486 233 728
294 283 71 466 89 870 85 303 -3 339 -5 525 -33z m-1989 -71 c-10 -11 -24 -17
-31 -15 -7 3 -16 1 -20 -5 -3 -6 -12 -11 -18 -11 -14 1 63 50 77 50 5 0 1 -9
-8 -19z m1831 -134 c204 -23 318 -43 486 -88 252 -68 469 -150 695 -263 l149
-75 6 -76 c4 -42 12 -86 18 -97 6 -12 63 -78 127 -147 271 -297 397 -508 546
-913 41 -112 100 -157 210 -159 59 -1 69 -4 77 -23 7 -16 69 -280 69 -293 0
-1 -19 17 -42 40 -87 86 -177 107 -456 108 -109 1 -208 -2 -222 -5 -23 -5 -28
1 -59 65 -21 42 -59 96 -98 137 -34 37 -63 72 -63 78 0 7 -9 42 -21 80 -62
202 -246 405 -426 471 -67 25 -81 35 -131 93 -152 179 -299 272 -494 316 -103
24 -128 26 -278 22 -156 -5 -169 -7 -243 -36 -96 -38 -165 -81 -211 -132 l-35
-39 -63 63 c-122 121 -258 162 -508 153 -90 -3 -168 -12 -205 -22 -153 -43
-333 -164 -456 -307 -48 -56 -75 -78 -115 -94 -129 -53 -274 -176 -358 -304
-55 -82 -120 -211 -137 -270 -7 -25 -29 -70 -50 -100 -20 -30 -46 -77 -58
-105 l-21 -50 -248 3 c-168 2 -260 0 -287 -8 -57 -17 -142 -75 -165 -112 l-20
-33 0 32 c0 35 45 257 59 289 8 19 15 21 55 17 56 -7 122 16 159 55 15 16 46
82 76 164 27 75 66 171 85 212 82 178 259 437 434 635 96 109 113 141 121 230
l6 63 130 67 c404 208 857 338 1284 371 154 12 514 5 678 -13z m-2464 -72 c76
-42 76 -38 2 -107 -22 -21 -47 -38 -55 -38 -22 1 -132 62 -143 81 -7 12 2 30
39 76 48 60 49 61 69 44 11 -10 51 -35 88 -56z m449 33 c-7 -7 -12 -8 -12 -2
0 14 12 26 19 19 2 -3 -1 -11 -7 -17z m3848 -40 c44 -56 49 -74 21 -83 -13 -4
-29 5 -52 28 -19 18 -47 42 -62 54 -31 24 -28 39 7 52 30 12 41 5 86 -51z
m-411 -106 c29 -26 40 -42 32 -47 -14 -8 -40 13 -84 69 -37 46 -15 37 52 -22z
m668 -120 c265 -302 436 -601 551 -962 32 -102 62 -220 62 -248 0 -29 -37 58
-81 188 -58 174 -167 430 -169 397 0 -4 7 -21 15 -37 14 -27 14 -30 0 -30 -8
0 -15 9 -15 20 0 11 -4 20 -9 20 -5 0 -5 -15 1 -35 6 -19 15 -32 19 -30 4 3 5
-4 2 -15 -3 -11 -1 -20 4 -20 5 0 9 -8 10 -18 2 -20 42 -166 73 -261 29 -91
27 -108 -12 -116 -50 -9 -165 -35 -238 -52 -36 -9 -71 -16 -77 -16 -14 0 -18
-27 -5 -27 4 0 3 -25 -2 -55 -6 -30 -13 -55 -17 -55 -3 0 -28 57 -54 128 -61
165 -187 422 -266 542 -71 109 -171 231 -278 340 -113 116 -130 154 -96 219
24 48 73 81 240 163 222 109 211 110 342 -40z m-4611 25 c126 -63 196 -107
170 -107 -3 0 -1 -12 5 -27 15 -41 2 -76 -47 -124 -102 -100 -219 -260 -374
-509 -83 -135 -130 -226 -169 -329 l-36 -96 -33 3 c-18 2 -32 -1 -32 -7 0 -6
9 -11 20 -11 11 0 20 -6 20 -14 0 -18 -17 -30 -24 -17 -3 5 -22 9 -43 9 -88 0
-273 15 -273 22 0 4 -11 10 -25 12 -13 3 -22 1 -19 -3 3 -5 0 -9 -5 -9 -16 0
-41 -68 -41 -111 0 -32 -4 -39 -19 -39 -21 0 -31 26 -31 79 0 37 70 294 127
461 47 140 155 360 240 490 72 109 215 293 287 368 40 43 42 44 96 39 44 -4
89 -21 206 -80z m239 -145 c-3 -3 -11 0 -17 6 -15 15 -31 16 -22 0 4 -7 3 -8
-4 -4 -6 4 -9 13 -6 21 5 12 9 12 30 -2 14 -9 22 -18 19 -21z m1550 -462 c136
-47 203 -118 229 -241 13 -65 10 -175 -5 -185 -5 -3 -30 15 -55 40 -58 55
-138 83 -271 96 -52 5 -101 14 -108 20 -16 13 -55 111 -55 138 0 19 -17 49
-23 42 -2 -3 -1 -33 3 -68 15 -123 -1 -142 -170 -197 -89 -29 -159 -65 -182
-92 -11 -14 -11 -16 2 -11 8 3 40 13 70 21 266 78 347 99 406 109 231 36 378
-58 392 -251 4 -63 3 -69 -19 -86 -15 -11 -17 -15 -6 -12 9 4 17 2 17 -3 0
-18 -21 -11 -60 20 -47 38 -144 86 -190 94 -26 5 -16 -2 39 -30 87 -43 158
-109 198 -185 27 -52 28 -59 28 -199 0 -140 -1 -147 -29 -202 -38 -75 -87
-123 -118 -115 -13 3 -66 18 -118 32 -72 20 -134 29 -255 36 -272 15 -325 36
-325 131 0 21 -4 38 -10 38 -5 0 -10 -15 -10 -32 0 -90 -27 -127 -204 -282
-57 -50 -99 -100 -152 -180 -40 -61 -83 -117 -95 -124 -33 -21 -105 20 -144
83 -27 44 -30 56 -30 134 0 99 23 178 89 306 82 161 279 324 441 367 128 34
347 21 498 -28 27 -9 51 -14 54 -11 9 10 -72 54 -172 93 -75 30 -102 45 -114
66 -20 35 -26 35 -41 -2 -12 -29 -47 -48 -77 -42 -7 2 -13 -1 -13 -6 0 -10
-19 -13 -204 -37 -66 -9 -126 -13 -133 -11 -19 8 -17 178 3 247 62 209 236
400 450 495 127 56 346 68 469 24z m1033 4 c94 -18 197 -66 278 -128 92 -69
90 -72 -40 -70 l-111 2 95 -7 c62 -5 111 -15 140 -28 88 -41 207 -168 252
-270 37 -84 31 -276 -11 -333 -16 -23 -27 -26 -112 -31 -52 -3 -138 -11 -191
-17 -104 -13 -122 -10 -153 23 -36 37 -45 64 -45 125 0 33 -4 60 -8 60 -4 0
-15 -54 -25 -120 -17 -126 -32 -162 -76 -185 -15 -7 -101 -21 -191 -30 -91 -9
-169 -20 -174 -26 -6 -5 33 -9 106 -9 183 0 284 -41 358 -144 19 -25 35 -44
37 -42 3 2 -7 26 -21 52 -48 91 -30 136 76 188 169 82 361 70 493 -31 107 -81
164 -218 172 -409 5 -107 3 -130 -18 -200 -23 -79 -74 -154 -104 -154 -17 0
-57 55 -47 65 4 5 2 6 -4 2 -5 -3 -36 20 -67 53 -31 32 -81 72 -110 88 -30 17
-57 38 -61 48 -4 10 7 49 25 93 23 55 33 96 35 146 2 48 1 61 -5 40 -27 -101
-90 -192 -168 -245 -48 -32 -49 -32 -148 -27 -76 3 -118 11 -175 32 -41 15
-79 31 -85 35 -13 11 -121 51 -109 41 5 -4 28 -22 51 -40 47 -36 96 -103 107
-144 8 -32 13 -32 91 -8 93 29 170 34 250 18 148 -31 245 -99 339 -236 94
-138 122 -249 113 -445 -10 -220 -90 -421 -220 -548 -79 -78 -132 -100 -254
-106 -79 -3 -103 -2 -103 8 0 7 -11 23 -25 36 -29 27 -32 36 -7 27 15 -6 15
-5 2 8 -18 18 -76 59 -83 59 -3 0 -12 -7 -21 -15 -13 -14 -18 -10 -42 32 -34
59 -114 163 -125 163 -5 0 7 -25 27 -56 138 -215 157 -363 72 -553 -43 -97
-131 -222 -229 -326 -93 -99 -115 -131 -51 -74 20 19 73 66 116 104 83 74 192
217 244 321 70 139 227 218 463 231 95 5 106 8 102 24 -3 9 0 26 7 36 10 16
10 15 6 -7 -3 -14 7 2 23 35 17 33 34 65 39 70 5 6 6 17 4 24 -3 8 0 11 7 7
10 -6 15 6 12 27 0 4 3 7 7 7 5 0 18 18 31 40 23 42 23 50 -2 25 -30 -29 -26
11 9 83 31 68 35 72 67 72 40 0 110 -43 128 -79 10 -20 13 -22 16 -9 9 35 -72
158 -104 158 -10 0 -13 29 -15 123 0 67 -1 128 -1 134 1 7 -3 10 -8 7 -5 -3
-10 3 -10 13 -1 10 -5 2 -9 -17 l-7 -35 -2 40 c0 22 -8 92 -17 156 l-17 117
31 53 c33 59 67 172 78 259 8 64 46 110 89 110 66 0 156 -79 201 -175 32 -69
44 -157 44 -320 -1 -123 -2 -137 -14 -116 -8 14 -12 40 -9 62 3 20 0 45 -7 55
-8 13 -10 14 -7 3 3 -9 2 -31 -3 -50 -4 -19 -8 -26 -9 -15 -1 12 -6 16 -16 12
-8 -3 -15 -2 -15 3 0 17 -54 62 -68 56 -8 -3 -21 0 -28 6 -31 26 -11 -14 44
-89 71 -95 99 -159 123 -277 43 -209 -8 -522 -98 -597 -14 -11 -15 -10 -8 12
4 14 11 29 16 34 5 6 9 15 9 20 0 6 -7 3 -14 -6 -12 -16 -15 -16 -52 2 -46 24
-103 28 -85 6 6 -8 26 -20 44 -27 43 -17 47 -25 47 -90 0 -120 -99 -249 -247
-321 -72 -34 -95 -41 -151 -42 -47 -1 -74 4 -90 15 -37 27 -72 80 -79 121 -3
21 -10 41 -16 45 -7 4 -8 -21 -5 -74 6 -83 31 -157 62 -182 26 -22 120 -8 219
33 99 41 98 41 94 24 -1 -8 7 -12 21 -10 15 2 22 -2 22 -13 0 -13 6 -15 31
-10 l32 7 -8 -38 c-21 -116 -69 -202 -167 -302 -109 -110 -205 -152 -351 -152
-91 0 -148 16 -174 50 -15 18 -17 50 -3 50 5 0 7 -6 4 -13 -2 -7 4 -22 16 -32
11 -10 20 -13 20 -7 0 6 -6 13 -12 15 -9 4 -10 8 -2 14 6 4 13 16 17 26 4 10
11 16 17 12 5 -3 -2 16 -16 44 -14 27 -27 61 -28 74 0 14 -5 23 -10 20 -4 -3
-5 -23 -2 -44 3 -21 2 -40 -4 -44 -5 -3 -10 1 -10 9 0 9 -4 16 -10 16 -11 0
-14 43 -3 54 4 4 8 24 10 44 l2 37 -30 -33 c-16 -18 -27 -38 -23 -44 4 -6 3
-8 -3 -5 -5 3 -23 -6 -39 -20 -139 -126 -145 -130 -209 -167 -47 -28 -51 -51
-4 -26 37 21 12 -5 -35 -35 -50 -32 -53 -45 -6 -25 16 7 27 17 23 23 -4 7 0 8
11 4 17 -7 81 40 161 118 17 17 39 36 48 44 16 12 17 12 10 -5 -29 -80 -180
-214 -270 -240 -82 -24 -295 -16 -382 15 -151 53 -223 134 -283 317 -21 62
-23 89 -23 274 0 131 5 230 13 275 40 204 78 266 197 322 51 24 73 28 143 28
45 0 82 3 82 7 0 16 -109 38 -189 38 -113 1 -159 20 -198 87 -27 46 -28 53
-28 173 1 106 4 134 23 182 71 178 262 259 464 198 144 -43 279 -129 364 -231
37 -44 94 -156 116 -226 7 -24 17 -43 21 -43 5 0 5 10 2 21 -4 12 -7 63 -7
113 -1 71 4 102 19 136 25 56 38 68 138 123 69 38 85 52 113 100 20 34 32 65
30 79 l-4 23 -11 -26 c-6 -14 -36 -48 -67 -76 -72 -67 -147 -97 -241 -97 -65
0 -77 3 -175 53 -181 92 -264 113 -455 112 -151 -1 -182 9 -227 76 -59 86 -72
247 -33 399 36 140 146 258 313 334 92 42 40 33 -61 -10 -52 -23 -108 -43
-124 -46 -15 -3 -35 -12 -45 -21 -38 -34 -56 22 -64 192 -5 110 -4 128 21 210
51 172 131 278 232 305 26 7 53 16 58 20 6 5 19 10 30 13 11 3 -9 2 -45 0 -36
-3 -87 -14 -115 -24 -27 -11 -61 -19 -74 -19 -18 0 -21 -3 -13 -13 8 -10 5
-20 -14 -42 -39 -45 -48 -24 -52 121 -3 106 0 134 18 191 41 127 112 212 220
262 109 51 273 65 418 35z m-1978 -451 c-10 -27 -32 -81 -47 -121 l-28 -73
-33 6 c-45 8 -129 -18 -181 -55 -24 -18 -45 -30 -47 -28 -11 11 48 99 112 167
71 76 183 150 226 151 16 0 16 -3 -2 -47z m2713 -10 c125 -87 216 -223 242
-366 9 -45 2 -46 -31 -8 -44 53 -110 84 -225 106 -25 5 -27 9 -32 77 -8 101
-21 162 -40 192 -9 14 -17 28 -17 32 0 14 66 -7 103 -33z m-2790 -221 c9 -8
17 -23 17 -32 0 -9 11 -38 24 -63 l25 -46 -65 -63 c-123 -118 -197 -232 -259
-399 -19 -51 -39 -97 -44 -102 -5 -5 -32 -13 -60 -18 -42 -6 -81 -21 -154 -57
-15 -7 -4 149 15 219 22 83 48 145 90 211 19 29 42 74 52 100 10 27 39 81 65
121 85 129 224 191 294 129z m4389 -25 c78 -195 127 -504 128 -794 0 -101 -17
-52 -24 68 -9 144 -19 180 -26 89 -4 -56 -8 -65 -25 -67 -79 -10 -85 -14 -82
-49 2 -27 5 -33 20 -28 12 4 17 0 17 -15 0 -27 -52 -38 -82 -17 -12 9 -17 16
-10 16 6 0 12 5 12 11 0 5 -4 8 -9 5 -12 -8 -21 29 -21 84 0 71 -28 318 -45
399 -19 91 -53 239 -62 266 -4 16 -1 14 16 -7 11 -14 21 -29 21 -33 0 -4 12
-38 27 -75 25 -64 28 -69 67 -79 115 -30 116 -30 116 -17 0 31 -42 211 -55
237 -16 31 -19 49 -7 49 4 0 15 -19 24 -43z m-5997 -47 c3 -5 33 -7 72 -3 l66
6 -6 -56 c-4 -31 -17 -72 -29 -93 -23 -40 -78 -278 -77 -334 1 -29 5 -23 20
35 11 40 17 53 14 30 -23 -168 -34 -242 -40 -257 -7 -17 -14 -20 -67 -32 -15
-3 -36 -20 -48 -36 -12 -17 -26 -30 -31 -30 -23 0 -3 320 32 500 14 73 60 263
66 273 6 10 21 9 28 -3z m4484 -22 c39 -15 70 -38 115 -84 34 -35 67 -64 72
-64 15 0 109 -100 138 -148 15 -23 41 -84 58 -135 27 -79 32 -110 36 -224 2
-72 1 -144 -2 -159 l-7 -27 -15 28 c-8 15 -14 37 -14 50 0 13 -19 41 -47 69
-49 50 -70 63 -145 95 -31 13 -52 30 -63 50 -16 32 -34 41 -36 19 0 -7 -11 17
-24 54 -34 96 -79 177 -140 249 -29 35 -55 73 -58 86 -2 12 -2 56 1 98 l5 75
36 -6 c20 -4 60 -16 90 -26z m-688 -106 c-7 -2 -18 1 -23 6 -8 8 -4 9 13 5 13
-4 18 -8 10 -11z m-3694 -104 c-3 -8 -6 -5 -6 6 -1 11 2 17 5 13 3 -3 4 -12 1
-19z m20 -120 c-3 -8 -6 -5 -6 6 -1 11 2 17 5 13 3 -3 4 -12 1 -19z m762 -131
c8 -11 6 -34 -10 -93 -67 -260 -104 -792 -126 -1804 -5 -201 -12 -362 -18
-370 -5 -8 -12 -49 -16 -90 -3 -41 -11 -76 -18 -78 -6 -2 -11 -16 -11 -31 0
-15 -9 -36 -19 -45 -17 -15 -25 -16 -53 -7 -43 15 -121 65 -90 58 24 -6 27 0
13 22 -8 12 -12 12 -25 2 -21 -17 -36 -5 -72 57 -15 26 -37 59 -50 75 -13 15
-26 48 -30 73 -5 37 -9 43 -16 30 -5 -10 -7 -25 -3 -34 4 -9 13 -100 20 -202
17 -230 30 -306 64 -356 52 -76 193 -144 298 -144 46 0 55 3 63 22 7 18 9 10
9 -36 l1 -59 -187 5 c-124 3 -196 9 -211 17 -46 24 -65 101 -113 441 -26 190
-41 595 -36 1025 5 445 15 651 42 870 47 370 90 534 163 625 19 23 27 25 139
30 258 11 280 11 292 -3z m4647 -40 c66 -22 71 -39 84 -257 16 -261 5 -1183
-19 -1680 -6 -113 -13 -349 -16 -525 -6 -351 -13 -505 -23 -505 -4 0 -7 19 -7
42 0 24 -2 81 -3 128 -5 129 -24 65 -26 -85 l-1 -120 -186 -3 -186 -2 6 37 6
38 97 1 c53 0 117 7 143 14 59 16 85 54 116 165 21 75 23 105 27 458 3 252 1
377 -6 377 -6 0 -14 -15 -17 -32 -11 -49 -92 -181 -142 -230 -37 -36 -45 -41
-54 -28 -9 13 -10 12 -5 -3 4 -13 -2 -21 -22 -30 -15 -6 -29 -15 -32 -19 -6
-7 -146 -48 -166 -48 -18 0 -23 31 -39 216 -9 105 -14 314 -15 540 -1 203 -6
524 -11 714 -7 222 -7 429 -1 579 l9 234 29 25 29 25 197 -7 c112 -3 213 -12
234 -19z m-3008 -27 c103 -34 151 -67 198 -135 55 -80 74 -150 86 -314 12
-161 6 -212 -38 -337 -28 -78 -89 -157 -152 -196 -36 -23 -41 -23 -312 -22
-287 0 -367 8 -425 44 -75 46 -108 107 -121 222 -6 53 -8 59 -16 38 -6 -14 -8
-56 -5 -95 4 -73 35 -148 85 -210 28 -34 36 -28 -87 -67 -41 -12 -76 -28 -78
-34 -2 -6 25 -1 63 12 90 30 225 38 424 24 292 -19 471 -79 546 -181 78 -106
114 -230 114 -393 0 -188 -42 -236 -209 -239 -47 -1 -104 1 -126 5 l-40 7 31
-14 c16 -7 71 -23 120 -35 163 -38 186 -68 192 -252 10 -300 -109 -481 -326
-495 -107 -7 -182 9 -289 62 -164 83 -317 254 -388 436 -12 31 -28 65 -34 75
-19 31 -5 -41 28 -139 28 -84 30 -104 17 -144 -5 -17 -4 -22 6 -18 10 4 14 -3
13 -22 0 -29 -15 -35 -25 -10 -3 10 -10 3 -21 -19 -9 -19 -13 -34 -8 -34 5 0
9 5 9 10 0 6 5 10 10 10 6 0 10 -7 10 -16 0 -9 5 -12 12 -8 7 4 8 3 4 -4 -4
-7 -15 -12 -24 -13 -13 0 -12 -3 6 -11 46 -23 14 -38 -83 -38 -78 0 -176 24
-238 57 -105 58 -242 250 -281 394 l-15 54 0 -48 c-1 -77 37 -190 98 -292 36
-60 68 -91 161 -158 124 -89 163 -129 163 -166 0 -17 4 -31 9 -31 4 0 8 -30 8
-67 l1 -68 23 70 c27 83 47 124 73 147 22 20 133 58 169 58 47 0 152 -30 244
-71 52 -23 118 -48 145 -55 58 -16 235 -19 235 -4 0 6 7 10 16 10 8 0 12 -4 9
-10 -8 -13 26 -1 47 18 11 9 27 12 45 8 l28 -6 -25 15 c-22 14 -22 15 -3 10
12 -3 24 -1 28 5 3 5 0 10 -7 10 -7 0 -2 6 12 14 15 8 30 9 37 4 7 -6 14 -2
18 12 9 27 36 22 52 -10 32 -62 6 -163 -59 -230 -58 -59 -127 -83 -253 -88
-131 -5 -220 14 -398 84 -116 46 -137 51 -137 34 0 -5 4 -10 9 -10 5 0 31 -15
58 -34 28 -19 87 -53 133 -76 174 -88 400 -93 543 -12 45 25 56 28 61 17 3 -8
12 -15 20 -15 8 0 18 -10 22 -22 7 -22 7 -22 15 5 4 15 4 41 -1 57 -11 37 2
39 21 4 22 -43 14 -106 -22 -174 -76 -143 -243 -231 -466 -246 -105 -7 -176
12 -279 78 -69 43 -98 47 -42 5 50 -37 165 -93 233 -113 33 -10 62 -21 65 -25
17 -22 217 -18 285 6 11 4 5 -3 -14 -14 -18 -12 -31 -24 -29 -27 9 -8 83 28
135 67 29 21 54 39 57 39 16 0 -43 -75 -78 -99 -123 -84 -228 -115 -396 -115
-135 0 -186 12 -314 75 -148 74 -276 208 -276 291 0 25 4 28 31 28 17 0 45 7
62 15 31 15 73 62 64 71 -2 2 -28 -7 -58 -21 -101 -47 -214 -28 -355 60 -40
25 -101 76 -135 113 -61 65 -199 265 -199 287 0 7 14 9 34 7 31 -4 41 2 83 43
30 29 38 40 21 30 -16 -10 -28 -14 -28 -11 0 4 -10 0 -22 -8 -33 -23 -68 -21
-68 4 0 18 -19 26 -52 22 -3 -1 -25 19 -48 44 -47 51 -111 179 -135 270 -35
132 -28 335 16 475 24 76 81 154 104 142 21 -13 140 -127 143 -138 1 -5 7 -10
14 -10 7 0 46 -47 88 -104 72 -100 79 -106 162 -151 101 -54 187 -78 203 -58
5 7 21 19 35 26 14 7 34 21 46 30 25 21 49 62 35 62 -5 0 -12 -7 -15 -15 -8
-21 -67 -45 -109 -45 -138 0 -263 115 -335 308 -13 37 -28 83 -32 102 -8 35
-8 34 -9 -11 -1 -57 -21 -66 -81 -37 -54 27 -114 107 -153 205 -55 141 -48
370 17 514 13 31 61 105 106 164 44 59 79 110 76 112 -6 6 -116 -77 -116 -88
0 -5 -6 -9 -13 -9 -22 0 -39 76 -38 172 1 108 11 157 54 258 41 94 126 170
191 170 47 0 98 -45 121 -107 10 -27 41 -94 67 -151 l49 -103 -16 -50 c-9 -27
-20 -49 -24 -49 -12 0 -51 -219 -58 -328 -7 -111 -28 -163 -68 -171 -11 -2
-22 -6 -25 -10 -3 -4 -38 -18 -79 -32 -77 -26 -112 -55 -49 -41 57 12 214 8
232 -7 9 -7 21 -32 27 -55 6 -22 33 -87 60 -143 27 -57 56 -122 65 -145 14
-41 14 -43 -8 -60 -23 -17 -21 -18 55 -18 167 0 342 -60 411 -141 19 -22 57
-93 86 -157 63 -141 123 -235 208 -322 74 -75 73 -74 -30 88 -140 218 -170
304 -148 426 11 60 18 74 54 110 52 53 102 76 174 82 31 3 68 8 82 11 l25 5
-24 9 c-39 15 -160 9 -236 -11 -269 -73 -384 -77 -482 -18 -109 64 -201 174
-259 308 -25 58 -29 79 -32 198 -3 114 -1 147 19 225 41 167 109 305 250 508
88 127 132 177 196 223 85 60 160 93 278 120 11 3 83 2 160 -1 117 -4 154 -10
223 -33z m-2434 -82 c-4 -57 -11 -107 -17 -113 -10 -10 -3 121 9 185 12 56 14
31 8 -72z m818 27 c-2 -14 -6 -25 -8 -25 -2 0 -4 11 -4 25 0 14 4 25 9 25 4 0
6 -11 3 -25z m-25 -87 c-3 -7 -5 -2 -5 12 0 14 2 19 5 13 2 -7 2 -19 0 -25z
m-665 -140 c-2 -18 -10 -37 -16 -43 -8 -6 -16 -51 -20 -110 -4 -55 -12 -138
-17 -185 -4 -47 -14 -196 -20 -332 -7 -137 -16 -248 -20 -248 -4 0 -7 74 -6
164 1 90 5 162 10 159 4 -2 7 49 6 114 0 75 -4 111 -9 98 -5 -11 -9 -42 -9
-68 -1 -27 -5 -78 -10 -115 -12 -86 -31 -446 -40 -777 -7 -255 -8 -261 -37
-335 -30 -77 -80 -137 -183 -220 l-43 -35 21 -145 c26 -182 33 -260 20 -260
-28 0 -55 129 -91 435 -17 145 -17 1114 0 1325 15 187 50 447 63 472 5 9 9 28
9 42 0 13 11 38 26 55 28 33 36 34 270 39 l101 2 -5 -32z m5677 16 c22 -5 30
-11 27 -20 -3 -8 -1 -14 3 -14 5 0 11 5 13 12 6 18 66 13 131 -12 l58 -22 -5
-496 c-3 -274 -6 -524 -6 -557 0 -37 -3 -55 -8 -47 -5 7 -20 15 -33 17 -13 2
-51 8 -84 14 -33 6 -71 12 -85 14 l-25 4 -5 159 -5 159 -35 5 -35 5 -2 382 -2
382 27 10 c35 12 34 12 71 5z m379 -281 c87 -55 292 -247 320 -298 27 -53 36
-186 37 -550 0 -354 -6 -561 -23 -725 l-8 -75 -10 45 c-5 27 -7 141 -3 290 8
272 9 738 2 703 -5 -28 -16 -28 -68 -3 -22 11 -45 19 -51 20 -7 0 -25 7 -40
15 -16 8 -41 15 -56 15 -15 0 -31 6 -35 14 -4 8 -15 14 -23 14 -8 -1 -32 0
-52 0 l-38 2 0 268 c0 148 3 272 7 275 9 10 10 9 41 -10z m-6582 -21 c-9 -15
-36 -253 -46 -402 -5 -85 -13 -335 -16 -555 l-7 -400 -56 -37 c-66 -44 -121
-68 -154 -68 -28 0 -75 34 -88 64 -7 16 -8 11 -4 -19 3 -22 7 -59 9 -83 1 -23
10 -48 18 -55 8 -7 28 -30 45 -52 17 -22 56 -67 87 -99 30 -33 53 -63 50 -68
-3 -5 0 -7 7 -6 7 2 18 -7 24 -20 7 -13 14 -22 17 -20 2 2 22 -14 44 -36 l39
-38 -60 41 c-90 62 -98 69 -91 79 3 5 -2 16 -12 23 -16 13 -16 13 -2 -5 14
-18 14 -19 -5 -9 -25 14 -166 159 -187 193 -34 54 -47 193 -49 510 -3 411 22
672 72 756 44 73 337 332 360 318 5 -3 7 -9 5 -12z m6541 -619 c-2 -21 -4 -6
-4 32 0 39 2 55 4 38 2 -18 2 -50 0 -70z m-2487 -313 c0 -19 -5 -25 -25 -27
-11 -1 -14 1 -7 3 6 3 12 12 12 20 0 8 5 14 10 14 6 0 10 -4 10 -10z m64 -91
c5 -5 7 -11 4 -15 -9 -9 -62 25 -77 49 -12 19 -11 19 26 -3 21 -13 42 -27 47
-31z m1023 -291 c34 -16 53 -32 54 -50 0 -10 2 -10 6 0 17 42 23 -9 23 -187 0
-185 -2 -206 -25 -279 -47 -149 -129 -221 -261 -230 -99 -6 -134 8 -134 55 0
20 10 48 22 66 13 18 22 33 21 34 -8 8 54 82 64 78 7 -2 10 1 8 8 -3 7 18 37
45 67 28 30 50 61 50 68 0 6 4 12 8 12 12 0 42 73 42 103 0 20 -4 25 -17 20
-10 -4 -14 -2 -10 4 4 6 11 49 16 96 10 83 32 147 51 147 5 0 22 -6 37 -12z
m1743 -381 c0 -2 -10 -12 -21 -23 -22 -19 -22 -19 -8 4 12 19 29 30 29 19z
m-56 -46 c3 -5 -1 -14 -8 -20 -12 -10 -13 -8 -9 8 6 23 9 25 17 12z m-4704
-61 c9 -16 8 -18 -5 -14 -8 4 -15 12 -15 20 0 20 7 17 20 -6z m20 -40 c0 -5
-5 -10 -11 -10 -5 0 -7 5 -4 10 3 6 8 10 11 10 2 0 4 -4 4 -10z m-13 -96 c-3
-3 -12 -4 -19 -1 -8 3 -5 6 6 6 11 1 17 -2 13 -5z m-767 -74 c0 -6 -9 -5 -20
2 -11 7 -20 16 -20 21 0 4 9 3 20 -3 11 -6 20 -15 20 -20z m2878 -37 c-10 -2
-28 -2 -40 0 -13 2 -5 4 17 4 22 1 32 -1 23 -4z m-69 -7 c-12 -10 -60 -16 -54
-6 3 5 18 10 32 10 15 0 24 -2 22 -4z m-849 -17 c0 -6 7 -8 16 -5 9 4 22 2 28
-3 22 -18 145 -59 226 -76 87 -18 206 -16 268 3 18 6 30 7 27 1 -4 -5 1 -9 10
-9 9 0 13 5 10 10 -3 6 -4 10 -1 10 2 0 13 3 23 6 15 5 15 4 3 -5 -13 -9 -12
-11 3 -11 10 0 27 5 38 11 14 7 29 7 50 0 16 -6 27 -7 25 -2 -9 14 145 43 223
43 98 -1 120 -4 118 -16 -1 -6 4 -11 11 -12 6 -1 16 -2 21 -3 4 0 19 -21 32
-46 13 -25 27 -45 30 -45 4 0 9 12 12 28 3 15 19 41 34 58 l29 31 75 -9 c40
-5 88 -13 104 -19 46 -16 206 -24 214 -11 3 6 17 12 31 15 14 2 19 2 12 0 -8
-3 -11 -12 -7 -20 13 -36 -104 -157 -174 -181 -19 -7 -48 -12 -65 -12 -17 0
-41 -7 -53 -15 -19 -14 -22 -13 -33 16 -13 31 -45 59 -68 59 -9 0 -2 -14 18
-36 17 -20 36 -47 41 -61 13 -34 11 -155 -3 -210 -44 -178 -237 -313 -444
-313 -31 0 -53 4 -50 9 12 18 8 121 -4 136 -9 11 -9 17 2 28 7 7 19 12 27 9 8
-3 11 0 7 6 -3 5 10 22 30 37 75 57 201 214 191 238 -3 7 1 21 9 31 29 40 0
35 -34 -6 -124 -146 -268 -268 -382 -322 -63 -30 -69 -31 -205 -31 -135 0
-143 2 -223 34 -92 37 -172 92 -208 143 -25 35 -48 118 -33 118 5 0 9 -6 9
-12 0 -19 99 -128 116 -128 8 0 14 3 14 6 0 9 -27 33 -32 28 -3 -2 -11 2 -18
11 -11 13 -10 14 3 9 12 -4 14 -1 10 15 -5 19 -1 21 53 23 52 1 54 2 15 5 -24
3 -50 11 -59 19 -13 13 -11 14 14 7 16 -4 84 -8 151 -8 66 0 119 -3 116 -7 -2
-5 0 -8 6 -8 5 0 13 5 16 11 4 6 19 9 33 8 33 -3 114 19 108 29 -2 4 9 8 25 9
27 2 124 42 104 43 -5 0 14 14 42 30 29 17 56 30 59 29 8 -1 24 22 24 34 0 20
-228 -27 -253 -52 -7 -7 -2 -8 14 -5 16 3 13 -1 -11 -12 -70 -33 -145 -46
-265 -47 -148 -2 -213 19 -286 92 -67 67 -89 170 -53 247 16 33 34 45 34 23z
m773 -6 c-7 -2 -19 -2 -25 0 -7 3 -2 5 12 5 14 0 19 -2 13 -5z m-47 -29 c-3
-9 -6 -18 -6 -20 0 -11 -28 -2 -33 10 -4 10 0 12 15 8 14 -3 19 -1 14 6 -4 7
-2 12 4 12 7 0 9 -7 6 -16z m-2731 -82 c29 -45 186 -211 272 -284 23 -20 58
-68 78 -106 22 -40 69 -103 111 -147 40 -42 72 -81 71 -87 -3 -12 101 -57 136
-58 15 0 27 -5 27 -11 0 -18 -129 -3 -203 24 -256 93 -437 289 -506 547 -21
80 -33 170 -22 170 3 0 19 -21 36 -48z m3691 -26 c-33 -66 -94 -130 -158 -162
-65 -33 -158 -32 -158 2 0 16 26 19 35 4 3 -5 12 -10 19 -10 22 0 156 81 189
115 17 16 34 29 39 28 4 -2 8 4 8 12 0 8 4 15 9 15 5 0 14 14 21 30 7 17 15
28 18 26 2 -3 -7 -30 -22 -60z m188 -13 c-7 -91 -46 -186 -91 -219 -47 -35
-112 -49 -198 -44 -23 1 -14 6 35 18 131 34 179 83 220 224 28 95 28 98 35 98
2 0 2 -35 -1 -77z m-129 -330 c-13 -55 -61 -138 -108 -190 -96 -104 -253 -173
-395 -173 -44 0 -87 3 -96 6 -37 14 -10 22 82 26 92 3 102 5 187 48 107 54
222 161 270 252 20 39 36 58 49 58 15 0 17 -5 11 -27z m-2041 -188 c-4 -8 -8
-15 -10 -15 -2 0 -4 7 -4 15 0 8 4 15 10 15 5 0 7 -7 4 -15z m1104 -40 c37
-110 -73 -205 -237 -205 -140 0 -339 73 -425 157 -36 35 -63 73 -51 73 7 0 67
-42 75 -51 7 -10 80 -39 80 -32 0 3 10 -1 23 -9 33 -22 85 -29 107 -16 16 10
23 9 37 -5 17 -18 17 -18 -12 -12 -24 4 -26 3 -9 -4 23 -10 74 -3 74 10 0 5 5
9 11 9 6 0 9 -7 6 -14 -4 -10 -1 -13 8 -10 8 3 11 12 8 20 -6 17 51 20 91 4
16 -6 27 -6 31 0 6 10 37 -4 63 -27 7 -7 23 -13 35 -12 21 0 21 1 3 8 -14 5
-16 10 -8 15 7 4 16 4 22 1 6 -3 7 1 4 10 -4 9 -1 27 6 40 11 20 11 27 0 39
-10 13 -8 17 16 26 23 9 26 13 14 21 -13 9 -13 10 0 6 8 -2 21 -21 28 -42z
m-643 5 c3 -6 -1 -7 -9 -4 -18 7 -21 14 -7 14 6 0 13 -4 16 -10z m563 -2 c0
-7 3 -22 7 -33 5 -17 2 -21 -17 -21 -13 0 -26 4 -29 9 -4 6 -32 3 -70 -6 -62
-15 -173 -23 -234 -17 -16 2 26 6 95 10 72 4 143 14 168 23 25 10 42 12 42 6
0 -16 25 -4 26 12 2 30 10 41 12 17z m-963 -8 c-3 -5 -1 -10 4 -10 26 0 4
-147 -32 -215 -64 -123 -257 -184 -498 -157 -122 14 -199 36 -298 85 -63 31
-177 124 -166 135 3 3 15 -4 28 -16 13 -12 27 -22 31 -22 4 0 31 -11 59 -24
64 -29 203 -69 317 -92 134 -26 282 -9 408 48 85 38 130 113 138 233 2 41 3
45 10 45 3 0 2 -4 -1 -10z m305 -25 c13 -14 19 -25 14 -25 -6 0 -20 11 -32 25
-12 14 -18 25 -14 25 5 0 19 -11 32 -25z m-340 -25 c0 -5 -2 -10 -4 -10 -3 0
-8 5 -11 10 -3 6 -1 10 4 10 6 0 11 -4 11 -10z m935 0 c3 -6 -4 -10 -17 -10
-18 0 -20 2 -8 10 19 12 18 12 25 0z m-947 -20 c13 0 13 -3 4 -12 -10 -10 -15
-10 -22 2 -5 8 -9 20 -9 25 0 6 3 4 6 -2 2 -7 12 -13 21 -13z m372 -43 c0 -9
4 -25 8 -35 45 -91 58 -115 67 -115 6 1 16 18 24 39 7 22 16 46 19 54 3 8 4
18 4 23 -3 10 6 9 29 -4 11 -5 16 -15 13 -21 -4 -6 -3 -8 3 -5 11 7 142 -45
152 -61 19 -31 194 -39 381 -18 l45 5 -50 -13 c-58 -14 -40 -27 20 -13 22 5
54 10 71 10 37 1 41 30 5 35 -27 4 -17 22 13 22 12 0 27 5 34 12 6 6 15 8 19
4 4 -4 1 -12 -7 -17 -11 -7 -6 -9 17 -5 34 4 43 12 80 58 29 39 36 14 11 -40
-42 -87 -151 -157 -293 -187 -113 -24 -349 -25 -432 -2 -80 21 -150 57 -185
94 -38 40 -78 132 -84 195 l-6 53 21 -25 c11 -14 21 -33 21 -43z m527 47 c-3
-3 -12 -4 -19 -1 -8 3 -5 6 6 6 11 1 17 -2 13 -5z m-927 -37 c0 -4 -6 -2 -14
5 -8 7 -12 17 -9 22 5 8 23 -12 23 -27z m1007 27 c-3 -3 -12 -4 -19 -1 -8 3
-5 6 6 6 11 1 17 -2 13 -5z m-1002 -114 c3 -5 1 -10 -4 -10 -6 0 -11 5 -11 10
0 6 2 10 4 10 3 0 8 -4 11 -10z m-148 -26 c-3 -3 -12 -4 -19 -1 -8 3 -5 6 6 6
11 1 17 -2 13 -5z m1330 -30 c-3 -3 -12 -4 -19 -1 -8 3 -5 6 6 6 11 1 17 -2
13 -5z"/>
<path d="M7037 8169 c7 -7 15 -10 18 -7 3 3 -2 9 -12 12 -14 6 -15 5 -6 -5z"/>
<path d="M7015 8140 c-3 -5 -1 -10 4 -10 6 0 11 5 11 10 0 6 -2 10 -4 10 -3 0
-8 -4 -11 -10z"/>
<path d="M7087 8139 c7 -7 15 -10 18 -7 3 3 -2 9 -12 12 -14 6 -15 5 -6 -5z"/>
<path d="M7137 8115 c3 -8 9 -12 14 -9 12 7 11 11 -5 17 -10 4 -13 1 -9 -8z"/>
<path d="M6950 8070 c0 -5 7 -7 15 -4 8 4 15 8 15 10 0 2 -7 4 -15 4 -8 0 -15
-4 -15 -10z"/>
<path d="M7207 8073 c-13 -12 -7 -23 11 -22 10 0 12 3 4 6 -6 2 -10 9 -6 14 6
10 0 12 -9 2z"/>
<path d="M6998 8063 c7 -3 16 -2 19 1 4 3 -2 6 -13 5 -11 0 -14 -3 -6 -6z"/>
<path d="M7870 7306 c0 -11 30 -66 36 -66 2 0 -3 15 -12 33 -19 36 -24 44 -24
33z"/>
<path d="M7367 7206 c-4 -11 -1 -13 10 -9 12 5 14 1 9 -18 -6 -21 -6 -22 5 -5
9 14 8 21 -4 33 -13 13 -15 13 -20 -1z"/>
<path d="M7400 7160 c0 -5 5 -10 10 -10 6 0 10 5 10 10 0 6 -4 10 -10 10 -5 0
-10 -4 -10 -10z"/>
<path d="M7946 7155 c-9 -26 -7 -32 5 -12 6 10 9 21 6 23 -2 3 -7 -2 -11 -11z"/>
<path d="M7969 7143 c0 -5 -2 -21 -4 -37 -4 -26 -3 -27 10 -10 7 11 10 20 5
22 -5 2 -6 10 -3 18 3 8 2 14 -1 14 -3 0 -6 -3 -7 -7z"/>
<path d="M7405 7119 c-3 -5 1 -6 10 -3 11 5 14 2 9 -12 -7 -20 -6 -19 13 6 10
13 8 16 -7 17 -11 1 -22 -2 -25 -8z"/>
<path d="M7506 6973 c-4 -9 -4 -14 0 -10 4 4 14 1 23 -6 14 -11 15 -10 1 8 -8
11 -15 21 -16 23 -1 2 -5 -5 -8 -15z"/>
<path d="M7550 6934 c0 -5 7 -18 15 -28 8 -11 15 -16 15 -10 0 5 -7 18 -15 28
-8 11 -15 16 -15 10z"/>
<path d="M7720 6580 c0 -11 4 -20 9 -20 5 0 7 9 4 20 -3 11 -7 20 -9 20 -2 0
-4 -9 -4 -20z"/>
<path d="M7691 6564 c0 -11 3 -14 6 -6 3 7 2 16 -1 19 -3 4 -6 -2 -5 -13z"/>
<path d="M7817 6554 c-16 -9 -26 -18 -24 -21 3 -3 12 -1 19 3 7 5 29 14 48 20
30 10 31 12 10 13 -14 0 -38 -7 -53 -15z"/>
<path d="M2620 6825 c-7 -9 -11 -18 -8 -20 3 -3 11 1 18 10 7 9 11 18 8 20 -3
3 -11 -1 -18 -10z"/>
<path d="M2607 6773 c-4 -3 -7 -11 -7 -17 0 -6 5 -5 12 2 6 6 9 14 7 17 -3 3
-9 2 -12 -2z"/>
<path d="M2563 6722 c-6 -20 -11 -38 -10 -39 7 -6 33 56 28 65 -4 6 -12 -6
-18 -26z"/>
<path d="M2519 6624 c-5 -15 -8 -29 -5 -31 2 -2 8 10 14 26 13 38 5 41 -9 5z"/>
<path d="M2198 6563 c7 -3 16 -2 19 1 4 3 -2 6 -13 5 -11 0 -14 -3 -6 -6z"/>
<path d="M2343 6553 c15 -2 37 -2 50 0 12 2 0 4 -28 4 -27 0 -38 -2 -22 -4z"/>
<path d="M2426 6552 c-3 -5 9 -7 27 -4 22 2 28 1 18 -6 -8 -6 -9 -12 -3 -16 8
-5 22 14 22 30 0 8 -59 4 -64 -4z"/>
<path d="M4321 6524 c0 -11 3 -14 6 -6 3 7 2 16 -1 19 -3 4 -6 -2 -5 -13z"/>
<path d="M5861 7009 c-2 -26 -81 -97 -138 -125 -55 -27 -74 -27 -203 2 -14 3
15 -16 65 -43 49 -26 91 -55 93 -63 3 -13 2 -13 -7 0 -8 11 -11 11 -11 2 0 -7
6 -15 14 -18 14 -5 36 -54 36 -78 0 -6 -33 -20 -72 -30 -95 -25 -73 -32 35
-12 137 26 248 16 339 -30 55 -28 65 -30 47 -8 -22 26 -80 51 -161 68 -115 23
-141 37 -162 84 -11 24 -16 51 -12 65 8 34 90 84 159 98 73 15 76 33 5 24 -53
-7 -53 -7 -35 13 11 12 17 30 14 44 -2 13 -5 16 -6 7z"/>
<path d="M6395 6339 c-11 -17 1 -21 15 -4 8 9 8 15 2 15 -6 0 -14 -5 -17 -11z"/>
<path d="M7038 5240 c-11 -38 -10 -56 3 -43 6 6 9 23 7 39 l-3 29 -7 -25z"/>
<path d="M5830 4420 c0 -5 5 -10 11 -10 5 0 7 5 4 10 -3 6 -8 10 -11 10 -2 0
-4 -4 -4 -10z"/>
<path d="M6098 4263 c12 -2 32 -2 45 0 12 2 2 4 -23 4 -25 0 -35 -2 -22 -4z"/>
<path d="M6835 4065 c-15 -31 -47 -76 -72 -101 -24 -25 -35 -41 -24 -35 43 23
145 171 128 187 -2 2 -17 -20 -32 -51z"/>
<path d="M5475 3553 c-39 -5 -85 -23 -85 -34 0 -4 12 -1 28 7 15 7 39 14 54
14 15 0 30 5 33 10 3 6 5 9 3 9 -2 -1 -16 -4 -33 -6z"/>
<path d="M6283 3323 c9 -2 23 -2 30 0 6 3 -1 5 -18 5 -16 0 -22 -2 -12 -5z"/>
<path d="M6542 6245 c0 -16 2 -22 5 -12 2 9 2 23 0 30 -3 6 -5 -1 -5 -18z"/>
<path d="M2826 3473 c-6 -14 -5 -15 5 -6 7 7 10 15 7 18 -3 3 -9 -2 -12 -12z"/>
<path d="M2788 3433 c7 -3 16 -2 19 1 4 3 -2 6 -13 5 -11 0 -14 -3 -6 -6z"/>
<path d="M7262 3730 c0 -19 2 -27 5 -17 2 9 2 25 0 35 -3 9 -5 1 -5 -18z"/>
<path d="M7262 3660 c0 -14 2 -19 5 -12 2 6 2 18 0 25 -3 6 -5 1 -5 -13z"/>
<path d="M7447 3649 c7 -7 15 -10 18 -7 3 3 -2 9 -12 12 -14 6 -15 5 -6 -5z"/>
<path d="M7373 2913 c15 -2 37 -2 50 0 12 2 0 4 -28 4 -27 0 -38 -2 -22 -4z"/>
<path d="M7363 2893 c15 -2 39 -2 55 0 15 2 2 4 -28 4 -30 0 -43 -2 -27 -4z"/>
<path d="M4610 5498 c-230 -159 -287 -188 -369 -188 -46 0 -57 13 -115 125
-29 58 -35 64 -30 35 3 -19 12 -51 19 -71 8 -20 17 -63 20 -95 8 -69 -3 -85
-76 -109 l-44 -15 45 4 c25 2 88 14 140 25 52 11 118 21 146 21 44 0 54 4 68
25 9 14 76 86 148 160 72 74 129 135 126 135 -2 0 -37 -23 -78 -52z"/>
<path d="M4728 3973 c7 -3 16 -2 19 1 4 3 -2 6 -13 5 -11 0 -14 -3 -6 -6z"/>
<path d="M3920 3309 c0 -5 5 -7 10 -4 6 3 10 8 10 11 0 2 -4 4 -10 4 -5 0 -10
-5 -10 -11z"/>
<path d="M3722 3140 c12 -19 28 -27 28 -14 0 7 -27 34 -34 34 -4 0 -1 -9 6
-20z"/>
<path d="M4891 3114 c0 -11 3 -14 6 -6 3 7 2 16 -1 19 -3 4 -6 -2 -5 -13z"/>
<path d="M4760 2639 c-30 -15 -100 -39 -156 -53 -55 -14 -113 -32 -130 -41
l-29 -15 45 6 c132 20 277 72 316 116 10 10 15 17 13 17 -2 -1 -29 -15 -59
-30z"/>
<path d="M8028 5553 c7 -3 16 -2 19 1 4 3 -2 6 -13 5 -11 0 -14 -3 -6 -6z"/>
<path d="M7981 5533 c0 -11 3 -13 6 -5 2 6 10 9 15 6 7 -4 8 -2 4 4 -11 18
-26 14 -25 -5z"/>
<path d="M8251 4464 c0 -11 3 -14 6 -6 3 7 2 16 -1 19 -3 4 -6 -2 -5 -13z"/>
<path d="M7041 3584 c0 -11 3 -14 6 -6 3 7 2 16 -1 19 -3 4 -6 -2 -5 -13z"/>
<path d="M6960 3345 c-6 -8 -33 -28 -58 -45 -25 -16 -39 -30 -31 -30 23 0 109
67 109 86 0 8 -8 4 -20 -11z"/>
<path d="M6688 3295 c-3 -6 0 -15 7 -22 10 -10 14 -9 19 3 3 8 2 13 -3 9 -5
-3 -11 0 -13 7 -3 7 -7 8 -10 3z"/>
<path d="M6798 3273 c7 -3 16 -2 19 1 4 3 -2 6 -13 5 -11 0 -14 -3 -6 -6z"/>
<path d="M5183 3135 c-3 -9 -3 -18 -1 -21 3 -3 8 4 11 16 6 23 -1 27 -10 5z"/>
<path d="M5844 3114 c-18 -14 -18 -15 4 -4 12 6 22 13 22 15 0 8 -5 6 -26 -11z"/>
<path d="M5345 2661 c-8 -14 4 -33 16 -26 5 4 9 2 9 -3 0 -5 12 -14 28 -21
l27 -12 -24 20 c-14 10 -30 26 -37 36 -8 10 -14 12 -19 6z"/>
<path d="M6429 2633 c-22 -46 -22 -50 1 -15 13 18 20 35 18 37 -3 3 -11 -7
-19 -22z"/>
<path d="M5925 2614 c-22 -13 -68 -33 -103 -45 -35 -12 -61 -23 -59 -26 8 -8
145 45 184 71 47 32 32 32 -22 0z"/>
<path d="M6359 2533 c-13 -16 -12 -17 4 -4 9 7 17 15 17 17 0 8 -8 3 -21 -13z"/>
<path d="M6200 2450 c-9 -6 -10 -10 -3 -10 6 0 15 5 18 10 8 12 4 12 -15 0z"/>
<path d="M6118 2433 c7 -3 16 -2 19 1 4 3 -2 6 -13 5 -11 0 -14 -3 -6 -6z"/>
<path d="M5953 2472 c11 -12 13 -22 6 -35 -7 -11 -7 -17 0 -17 6 0 16 10 22
22 10 18 8 24 -7 35 -26 19 -40 16 -21 -5z"/>
<path d="M5792 2374 c-12 -8 -22 -24 -22 -35 0 -15 7 -19 33 -19 17 1 43 7 57
15 l25 14 -23 1 c-15 0 -26 7 -29 20 -6 24 -12 25 -41 4z"/>
<path d="M5840 2370 c0 -5 5 -10 10 -10 6 0 10 5 10 10 0 6 -4 10 -10 10 -5 0
-10 -4 -10 -10z"/>
<path d="M5638 2353 c7 -3 16 -2 19 1 4 3 -2 6 -13 5 -11 0 -14 -3 -6 -6z"/>
<path d="M5751 2344 c0 -11 3 -14 6 -6 3 7 2 16 -1 19 -3 4 -6 -2 -5 -13z"/>
<path d="M5685 2340 c27 -12 35 -12 35 0 0 6 -12 10 -27 9 -25 0 -26 -1 -8 -9z"/>
<path d="M6120 2230 c-9 -6 -10 -10 -3 -10 6 0 15 5 18 10 8 12 4 12 -15 0z"/>
<path d="M6008 2187 c-16 -6 -28 -14 -28 -19 0 -11 2 -10 44 7 57 24 42 35
-16 12z"/>
</g>
</svg>
